<?xml version="1.0" encoding="UTF-8" standalone="no"?>
<!DOCTYPE svg PUBLIC "-//W3C//DTD SVG 1.1//EN"
 "http://www.w3.org/Graphics/SVG/1.1/DTD/svg11.dtd">
<!-- Generated by graphviz version 2.40.1 (20161225.0304)
 -->
<!-- Title: layers Pages: 1 -->
<svg width="576pt" height="240pt"
 viewBox="0.00 0.00 576.20 240.00" xmlns="http://www.w3.org/2000/svg" xmlns:xlink="http://www.w3.org/1999/xlink">
<g id="graph0" class="graph" transform="scale(1 1) rotate(0) translate(4 236)">
<title>layers</title>
<polygon fill="#ffffff" stroke="transparent" points="-4,4 -4,-236 572.1994,-236 572.1994,4 -4,4"/>
<g id="clust1" class="cluster">
<title>cluster_0</title>
<polygon fill="#d3d3d3" stroke="#d3d3d3" points="14.8495,-93 14.8495,-224 514.5857,-224 514.5857,-93 14.8495,-93"/>
<text text-anchor="middle" x="264.7176" y="-207.4" font-family="Times,serif" font-size="14.00" fill="#000000">Vault</text>
</g>
<g id="clust3" class="cluster">
<title>cluster_1</title>
<polygon fill="none" stroke="#0000ff" points="41.1308,-8 41.1308,-85 560.1994,-85 560.1994,-8 41.1308,-8"/>
<text text-anchor="middle" x="300.6651" y="-68.4" font-family="Times,serif" font-size="14.00" fill="#000000">Merkle DAG Links/Chain</text>
</g>
<!-- /ipfs/object/QmYwAPJzv5 -->
<g id="node1" class="node">
<title>/ipfs/object/QmYwAPJzv5</title>
<ellipse fill="none" stroke="#000000" cx="138.4823" cy="-173" rx="115.7658" ry="18"/>
<text text-anchor="middle" x="138.4823" y="-168.8" font-family="Times,serif" font-size="14.00" fill="#000000">/ipfs/object/QmYwAPJzv5</text>
</g>
<!-- /readme -->
<g id="node3" class="node">
<title>/readme</title>
<ellipse fill="#ffffff" stroke="#ffffff" cx="464.45" cy="-173" rx="42.2719" ry="18"/>
<text text-anchor="middle" x="464.45" y="-168.8" font-family="Times,serif" font-size="14.00" fill="#000000">/readme</text>
</g>
<!-- /ipfs/object/QmYwAPJzv5&#45;&gt;/readme -->
<g id="edge1" class="edge">
<title>/ipfs/object/QmYwAPJzv5&#45;&gt;/readme</title>
<path fill="none" stroke="#000000" stroke-dasharray="1,5" d="M254.3241,-173C308.2524,-173 369.7148,-173 412.1717,-173"/>
<polygon fill="#000000" stroke="#000000" points="412.2712,-176.5001 422.2712,-173 412.2712,-169.5001 412.2712,-176.5001"/>
</g>
<!-- /ipfs/QmYwAPJzv5 -->
<g id="node4" class="node">
<title>/ipfs/QmYwAPJzv5</title>
<ellipse fill="#d3d3d3" stroke="#000000" cx="138.4823" cy="-34" rx="89.2031" ry="18"/>
<text text-anchor="middle" x="138.4823" y="-29.8" font-family="Times,serif" font-size="14.00" fill="#000000">/ipfs/QmYwAPJzv5</text>
</g>
<!-- /ipfs/object/QmYwAPJzv5&#45;&gt;/ipfs/QmYwAPJzv5 -->
<g id="edge3" class="edge">
<title>/ipfs/object/QmYwAPJzv5&#45;&gt;/ipfs/QmYwAPJzv5</title>
<path fill="none" stroke="#000000" d="M33.9255,-165.2643C21.524,-159.23 11.3279,-150.2261 5.8495,-137 -2.4567,-116.9471 -3.0401,-101.2912 14.8495,-89 35.8578,-74.5661 61.2664,-62.4875 83.5718,-53.3605"/>
<polygon fill="#000000" stroke="#000000" points="84.9281,-56.5877 92.9193,-49.6314 82.3342,-50.086 84.9281,-56.5877"/>
</g>
<!-- /ipfs/object/QmPZ9gcCEp -->
<g id="node2" class="node">
<title>/ipfs/object/QmPZ9gcCEp</title>
<ellipse fill="none" stroke="#000000" cx="138.4823" cy="-119" rx="114.0614" ry="18"/>
<text text-anchor="middle" x="138.4823" y="-114.8" font-family="Times,serif" font-size="14.00" fill="#000000">/ipfs/object/QmPZ9gcCEp</text>
</g>
<!-- /ipfs/QmPZ9gcCEp -->
<g id="node5" class="node">
<title>/ipfs/QmPZ9gcCEp</title>
<ellipse fill="#d3d3d3" stroke="#000000" cx="464.45" cy="-34" rx="87.9994" ry="18"/>
<text text-anchor="middle" x="464.45" y="-29.8" font-family="Times,serif" font-size="14.00" fill="#000000">/ipfs/QmPZ9gcCEp</text>
</g>
<!-- /ipfs/object/QmPZ9gcCEp&#45;&gt;/ipfs/QmPZ9gcCEp -->
<g id="edge5" class="edge">
<title>/ipfs/object/QmPZ9gcCEp&#45;&gt;/ipfs/QmPZ9gcCEp</title>
<path fill="none" stroke="#000000" d="M197.9078,-103.6058C215.9607,-98.9229 235.8512,-93.7571 254.1151,-89 303.1464,-76.2291 358.5909,-61.7286 400.2411,-50.8239"/>
<polygon fill="#000000" stroke="#000000" points="401.1946,-54.1923 409.9819,-48.2733 399.4214,-47.4206 401.1946,-54.1923"/>
</g>
<!-- /readme&#45;&gt;/ipfs/QmPZ9gcCEp -->
<g id="edge4" class="edge">
<title>/readme&#45;&gt;/ipfs/QmPZ9gcCEp</title>
<path fill="none" stroke="#000000" d="M464.45,-154.5953C464.45,-123.7935 464.45,-92.9918 464.45,-62.19"/>
<polygon fill="#000000" stroke="#000000" points="467.9501,-62.1894 464.45,-52.1895 460.9501,-62.1895 467.9501,-62.1894"/>
</g>
<!-- /ipfs/QmYwAPJzv5&#45;&gt;/ipfs/QmPZ9gcCEp -->
<g id="edge2" class="edge">
<title>/ipfs/QmYwAPJzv5&#45;&gt;/ipfs/QmPZ9gcCEp</title>
<path fill="none" stroke="#000000" d="M227.9855,-34C270.9124,-34 322.4405,-34 366.4229,-34"/>
<polygon fill="#000000" stroke="#000000" points="366.556,-37.5001 376.5559,-34 366.5559,-30.5001 366.556,-37.5001"/>
<text text-anchor="middle" x="315.4079" y="-38.2" font-family="Times,serif" font-size="14.00" fill="#000000">./readme</text>
</g>
</g>
</svg>
